HIERARCHY
ROOT Hips
{
 OFFSET 0.000000 0.000000 0.000000
 CHANNELS 6 Xposition Yposition Zposition Yrotation Xrotation Zrotation
 JOINT Chest
 {
  OFFSET 0.000000 9.588913 -0.003946
  CHANNELS 3 Yrotation Xrotation Zrotation
  JOINT Chest2
  {
   OFFSET 0.000000 9.541882 0.008053
   CHANNELS 3 Yrotation Xrotation Zrotation
   JOINT Chest3
   {
    OFFSET 0.000000 9.501360 0.000000
    CHANNELS 3 Yrotation Xrotation Zrotation
    JOINT Chest4
    {
     OFFSET 0.000000 9.491660 0.000000
     CHANNELS 3 Yrotation Xrotation Zrotation
     JOINT Neck
     {
      OFFSET 0.000000 14.331917 0.000000
      CHANNELS 3 Yrotation Xrotation Zrotation
      JOINT Head
      {
       OFFSET 0.000000 8.884799 0.017034
       CHANNELS 3 Yrotation Xrotation Zrotation
       End Site
       {
        OFFSET 0.000000 16.896195 0.008993
       }
      }
     }
     JOINT RightCollar
     {
      OFFSET -2.923010 9.499495 0.000000
      CHANNELS 3 Yrotation Xrotation Zrotation
      JOINT RightShoulder
      {
       OFFSET -13.795216 0.000000 0.000000
       CHANNELS 3 Yrotation Xrotation Zrotation
       JOINT RightElbow
       {
        OFFSET -30.272209 0.000000 0.000000
        CHANNELS 3 Yrotation Xrotation Zrotation
        JOINT RightWrist
        {
         OFFSET -24.478199 0.000000 0.000000
         CHANNELS 3 Yrotation Xrotation Zrotation
         End Site
         {
          OFFSET -18.090752 0.000000 0.000000
         }
        }
       }
      }
     }
     JOINT LeftCollar
     {
      OFFSET 2.923010 9.499495 0.000000
      CHANNELS 3 Yrotation Xrotation Zrotation
      JOINT LeftShoulder
      {
       OFFSET 13.795216 0.000000 0.000000
       CHANNELS 3 Yrotation Xrotation Zrotation
       JOINT LeftElbow
       {
        OFFSET 30.272209 0.000000 0.000000
        CHANNELS 3 Yrotation Xrotation Zrotation
        JOINT LeftWrist
        {
         OFFSET 24.478199 0.000000 0.000000
         CHANNELS 3 Yrotation Xrotation Zrotation
         End Site
         {
          OFFSET 18.090752 0.000000 0.000000
         }
        }
       }
      }
     }
    }
   }
  }
 }
 JOINT RightHip
 {
  OFFSET -7.826875 0.019532 0.001973
  CHANNELS 3 Yrotation Xrotation Zrotation
  JOINT RightKnee
  {
   OFFSET 0.000000 -40.546152 -0.001885
   CHANNELS 3 Yrotation Xrotation Zrotation
   JOINT RightAnkle
   {
    OFFSET 0.000000 -39.417092 -0.003189
    CHANNELS 3 Yrotation Xrotation Zrotation
    JOINT RightToe
    {
     OFFSET 0.000000 -7.579396 17.243563
     CHANNELS 3 Yrotation Xrotation Zrotation
     End Site
     {
      OFFSET 0.000000 -1.500329 6.694466
     }
    }
   }
  }
 }
 JOINT LeftHip
 {
  OFFSET 7.826875 0.019532 0.001973
  CHANNELS 3 Yrotation Xrotation Zrotation
  JOINT LeftKnee
  {
   OFFSET 0.000000 -40.546152 -0.001885
   CHANNELS 3 Yrotation Xrotation Zrotation
   JOINT LeftAnkle
   {
    OFFSET 0.000000 -39.417092 -0.003189
    CHANNELS 3 Yrotation Xrotation Zrotation
    JOINT LeftToe
    {
     OFFSET 0.000000 -7.579396 17.243563
     CHANNELS 3 Yrotation Xrotation Zrotation
     End Site
     {
      OFFSET 0.000000 -1.500329 6.694466
     }
    }
   }
  }
 }
}
MOTION
Frames: 7
Frame Time: 0.008333
-14.319374 89.028191 0.281203 -128.278718 -3.706756 -0.991692 2.919012 -0.207212 -1.555830 1.678870 -0.129167 -0.802270 2.098858 -0.157781 -1.003403 1.678870 -0.129167 -0.802270 17.773147 27.507276 -6.221887 22.672026 7.438386 -11.416446 -5.914272 -0.802316 -2.037117 -20.534979 5.110010 84.963618 62.686057 -46.722349 29.878672 10.917811 -15.648893 -3.999586 0.042068 -6.158403 5.076049 8.443112 -21.069413 -83.493590 -82.146550 -42.780612 -39.748654 -19.690394 -20.522097 26.106823 -7.287796 8.039816 -1.516982 -0.539425 1.286922 -1.054656 -0.390619 -5.186211 3.485677 0.016810 -0.160816 0.021709 1.228170 5.121272 -0.940059 2.301604 3.833719 -0.578259 0.403324 -5.490502 1.684618 -0.003920 0.160093 0.021008
-14.338659 89.027095 0.289520 -128.287109 -3.701637 -0.992156 2.913962 -0.212167 -1.543241 1.675444 -0.132216 -0.795903 2.094581 -0.161628 -0.995457 1.675444 -0.132216 -0.795903 17.651819 27.535711 -6.229147 22.513548 7.446977 -11.393267 -5.945892 -0.816381 -2.083182 -20.522861 5.121393 85.003389 62.756886 -46.720820 29.876322 10.926415 -15.647163 -4.007809 0.101412 -6.195610 5.108894 8.506278 -20.906710 -83.502747 -82.115957 -42.787264 -39.760078 -19.683702 -20.524393 26.105067 -7.282198 8.038908 -1.528866 -0.537803 1.293753 -1.056487 -0.389543 -5.195582 3.497243 0.017525 -0.159615 0.021662 1.218158 5.133943 -0.956931 2.305736 3.807628 -0.575110 0.411896 -5.482271 1.694748 -0.003915 0.160131 0.017851
-14.356453 89.025814 0.297253 -128.293816 -3.699297 -0.990845 2.909276 -0.214713 -1.531528 1.672416 -0.133916 -0.790350 2.090797 -0.163785 -0.988522 1.672416 -0.133916 -0.790350 17.531831 27.554903 -6.234444 22.356343 7.443217 -11.368268 -5.982239 -0.830484 -2.128787 -20.504472 5.133729 85.042580 62.838653 -46.719781 29.865862 10.929288 -15.647263 -4.007696 0.157434 -6.239596 5.143635 8.567652 -20.740139 -83.507266 -82.082284 -42.794907 -39.771679 -19.675504 -20.524434 26.098840 -7.277550 8.039993 -1.542107 -0.535294 1.301368 -1.057310 -0.390226 -5.206090 3.505739 0.018368 -0.157342 0.022774 1.204048 5.146980 -0.974801 2.313656 3.785063 -0.571897 0.419155 -5.474957 1.704127 -0.004004 0.160061 0.015174
-14.372939 89.024504 0.304124 -128.298020 -3.700947 -0.988945 2.904043 -0.215046 -1.521456 1.669221 -0.134218 -0.785565 2.086803 -0.164192 -0.982542 1.669221 -0.134218 -0.785565 17.413851 27.566369 -6.235288 22.200553 7.428881 -11.338544 -6.017837 -0.844241 -2.173105 -20.485669 5.146021 85.082019 62.922301 -46.718143 29.853060 10.926766 -15.645645 -4.003779 0.210526 -6.286974 5.181109 8.633111 -20.568950 -83.508974 -82.044984 -42.801693 -39.786617 -19.669364 -20.523316 26.091539 -7.275016 8.045312 -1.554913 -0.531850 1.308445 -1.059352 -0.391798 -5.216992 3.513297 0.018778 -0.154617 0.024104 1.189976 5.162079 -0.992548 2.321729 3.765559 -0.567476 0.424356 -5.469096 1.711829 -0.004268 0.160184 0.013090
-14.388218 89.023318 0.310252 -128.303253 -3.705971 -0.986001 2.899839 -0.213644 -1.512919 1.666501 -0.133468 -0.781451 2.083400 -0.163278 -0.977396 1.666501 -0.133468 -0.781451 17.295483 27.570931 -6.231050 22.042830 7.404375 -11.302692 -6.052381 -0.858647 -2.217181 -20.471163 5.161096 85.122947 63.001993 -46.713351 29.846588 10.922278 -15.640808 -4.001481 0.255614 -6.333304 5.221148 8.711449 -20.393813 -83.511575 -82.008627 -42.806379 -39.805672 -19.667048 -20.521281 26.087098 -7.273054 8.054938 -1.567305 -0.529568 1.312524 -1.063439 -0.391249 -5.226762 3.521048 0.018562 -0.151674 0.024997 1.178697 5.178133 -1.010326 2.328615 3.750554 -0.562692 0.429822 -5.465091 1.719201 -0.004847 0.159707 0.010801
-14.402212 89.022371 0.316067 -128.311439 -3.711622 -0.981050 2.897241 -0.211098 -1.504942 1.664847 -0.131961 -0.777791 2.081328 -0.161415 -0.972812 1.664847 -0.131961 -0.777791 17.171805 27.569185 -6.224023 21.877396 7.369708 -11.262208 -6.086313 -0.875811 -2.263670 -20.462102 5.181081 85.166431 63.079587 -46.702587 29.849173 10.917610 -15.638338 -4.003883 0.290977 -6.377522 5.263622 8.803324 -20.215322 -83.519753 -81.975175 -42.807941 -39.827803 -19.667508 -20.519453 26.086556 -7.267845 8.066620 -1.580635 -0.530361 1.311610 -1.067459 -0.388898 -5.233906 3.528198 0.017779 -0.148567 0.025379 1.169177 5.193565 -1.029253 2.335883 3.737253 -0.558158 0.436952 -5.460583 1.726151 -0.005129 0.157908 0.008801
-14.414611 89.021736 0.321708 -128.320880 -3.715009 -0.975690 2.895210 -0.208391 -1.496564 1.663750 -0.130191 -0.774024 2.079952 -0.159222 -0.968096 1.663750 -0.130191 -0.774024 17.039698 27.562464 -6.217350 21.701166 7.326508 -11.220070 -6.119254 -0.894292 -2.313922 -20.454958 5.204072 85.210728 63.155059 -46.690270 29.862971 10.913632 -15.641962 -4.011535 0.321722 -6.420431 5.307155 8.895528 -20.034211 -83.530936 -81.947920 -42.807180 -39.844381 -19.670471 -20.518501 26.088858 -7.259636 8.077345 -1.593869 -0.531286 1.306321 -1.069443 -0.388153 -5.237768 3.533860 0.016776 -0.145971 0.025284 1.161176 5.206606 -1.046856 2.342749 3.722808 -0.555391 0.444882 -5.454454 1.732092 -0.005175 0.155450 0.008031
